<?xml version="1.0" encoding="utf-8"?>
<!-- Generator: Adobe Illustrator 24.0.2, SVG Export Plug-In . SVG Version: 6.00 Build 0)  -->
<svg version="1.1" id="Capa_1" xmlns="http://www.w3.org/2000/svg" xmlns:xlink="http://www.w3.org/1999/xlink" x="0px" y="0px"
	 viewBox="0 0 761.8 292.6" style="enable-background:new 0 0 761.8 292.6;" xml:space="preserve">
<style type="text/css">
	.st0{fill-rule:evenodd;clip-rule:evenodd;fill:#FAACAE;}
	.st1{fill-rule:evenodd;clip-rule:evenodd;fill:#373435;}
</style>
<g>
	<polygon class="st0" points="37.3,0.4 223.5,0.4 223.5,74.8 174.1,74.8 174.1,292.6 87.9,292.6 87.9,74.8 37.3,74.8 	"/>
	<rect x="266.6" y="0.4" class="st0" width="88.5" height="292.2"/>
	<polygon class="st0" points="516.8,0.4 588.1,0.4 588.1,292.6 516.8,292.6 516.8,291.2 514.9,292.5 468.5,158.3 468.5,292.6 
		398.3,292.6 398.3,0.4 468.5,0.4 468.5,0.8 469.7,0 516.8,136 	"/>
	<rect x="631.2" y="0.4" class="st0" width="86.2" height="292.2"/>
</g>
<path class="st1" d="M758.4,137.5c7.3-1.7,1.5,7.4-3.3,8.6c-16.2,4-52.6-4.5-87,6.1c3.5,19.7-20.1,21.9-25.2,19.3
	c-13.5-6.8-0.2-18.6,10.6-23.3c-0.7-0.9-1.6-2-3.3-3.6c-1.6-1.5-3.8-2.9-5.6-4.3l-6.6,4.1l-5.9,3.9c-1.7,1.2-3.3,2.4-5.1,3.5
	c-25.1,14.9-38.9,27.1-59,33.5c-34.1,10.9-34.2-14.1-34-41c-20.2,6.1-107.6,7.7-105.8,14.7c22.3,89-21.8,166.3-13.9,5.9
	c-0.7,0.5-1.5,1-2.2,1.4c-8.2,4.3-11.9-2.3-3.7-9c0.6-0.5,1.4-1.1,1.9-1.6c0.5-0.5,1.7-0.9,1.7-2.3l0.1-9.4l-5.8,3.3l-6.5,3.4
	c-8.8,4.3-33.6,13.5-55.7,18.4c-27.2,6.1-50.3,7-44.6-20.6l-3.1,4.4c-5,6-8.7,5.4-10.2,2.3c-1.1-2.2-2-6.6,0.3-11.3
	c-25.3,15.2-41.6,25.9-70.5,33.9c-5.4,1.5-18.3,2.8-23.6-4.8c-5.3-7.6,1.6-22.7,3.5-31.2c0.1-0.5,1.4-4.1,0.7-4.5
	c-0.6-0.3-1.2-0.8-1.8-1l-4.2-1.5c-23.6,13.6-47.3,25.4-72.9,34.4c-7.3,2.1-13.8,4.5-21.5,5c-18.7,1.2-15.6-18-11.1-29.8
	c0.3-0.9-37.2,16.5-82.3,17.7c-3.3,0.9-3.5-2.6-1.4-4.5c16.6-0.8,57.6-4.5,85.5-19.6c3.3-5.3,6-8.2,11.9-9.1
	c16-2.6,15.8,17.3,10.6,14c-0.7-0.4-2.1-2.6-3-3.9c-8.8-14.1-23.1,23.1-13.9,28c9.4,5.1,80.2-26.6,91.6-35.5
	c4.3-25.1,24.3-20.9,15-2.7c2.9,1,4.5,1.5,6.8,3.8c3.7,3.6-2.7,17-3.9,21.1c-1.6,6.2-5.1,12.8-1.1,17.7l1.3,0.9
	c10.4,5.7,51.7-15.3,62.6-22.4l25.3-16.4c9-17.7,21.4-8,21.7-5c7.7-5.6,6.4,1.9,4.3,3.8c-2.1,1.9-7,9.4-9.5,23.6
	c0,10.3,4.6,10.2,13.3,10.9c36.1-2.1,65.6-15.3,84.3-24.7l8.7-4.4l0.9-4.6c0.1-38.6,1.2-75.2,4.7-87.6
	c12.5-43.9,18.7,57.5,3.2,105.8l0.1,0.3c34.3-8.8,77.5-6.5,112.1-13.6l4.1-45.3c-5.5-0.3-16.4-0.1-21.1-1.8c-4-2.5-2.2-6.8,4.8-6.1
	l17.3,0.3c1.4-11.4,2.7-13,5.2-13c5.3,0,3.5,6.3,2.7,13.6c5.4,0.9,23.9-0.7,23,4.6c-0.7,4.6-9.9,3.2-23.7,2.6
	c-1.5,12.9-11.3,74.1-0.1,84.1c11.2,10,30.5-3.2,37.4-6.8c15.4-8,34.5-21.1,49.7-30.4l7.7-4.5c-2.7-9.4,11.5-18.2,17.4-11.4
	c2.2,2.5-0.2,8.4-2.8,10.1c-0.3,0.2-1.5,1.2-1.5,1.5c2.1,2.6,6.5,7.5,8.8,10.3l9.4-2.3c22.8-4.4,44.6-2.6,70.1-2.4
	C750.8,141.1,756,138.1,758.4,137.5L758.4,137.5z M658.3,152.1c-6.4,1.4-21,11.3-10.1,14.5C653.3,168.1,665.6,162.7,658.3,152.1z
	 M291.7,145.5c-0.4-3.9,3.6-11.5,6.2-13.7C311.1,120.6,293,157.4,291.7,145.5z M419.6,136.6c-1.3-30.1,1.2-79.6,3.7-87.6
	c0.9-2.8,3.1,17,2.8,28.7C425.7,99.8,421.5,124.6,419.6,136.6L419.6,136.6z M420.4,164.3c-3.1,1.4-2.7,74.7,2,81.7
	C429.9,257.4,433.3,158.6,420.4,164.3z M193.7,126.6c2.5-2.2,3.9-11.5-0.6-6.3C189,126.3,191.2,128.9,193.7,126.6z M652,128.5
	c1.4-2.6-2.1-1.6-2.8-0.3C647.8,130.6,650.4,131.5,652,128.5z"/>
</svg>
