<svg id="Capa_1" data-name="Capa 1" xmlns="http://www.w3.org/2000/svg" viewBox="0 0 452.17 486.57"><defs><style>.cls-1{fill:#fff;}</style></defs><title>tienda</title><path class="cls-1" d="M128.87,320.37H397a55.31,55.31,0,0,0,55.2-55.2v-114a1.27,1.27,0,0,0-.1-.6c0-.2-.1-.5-.1-.7s-.1-.4-.1-.6a6.37,6.37,0,0,1-.2-.7c-.1-.2-.1-.4-.2-.6s-.1-.4-.2-.6a4.88,4.88,0,0,1-.3-.7,2.19,2.19,0,0,0-.3-.5l-.3-.6c-.1-.2-.2-.3-.3-.5s-.3-.4-.4-.6a1.76,1.76,0,0,0-.4-.5c-.1-.2-.3-.3-.4-.5s-.3-.3-.4-.5-.3-.3-.4-.4l-.5-.5c-.2-.1-.3-.3-.5-.4s-.4-.3-.6-.4-.3-.2-.5-.3a2.09,2.09,0,0,1-.6-.4l-.6-.3-.6-.3-.6-.3c-.2-.1-.4-.1-.6-.2a1.85,1.85,0,0,0-.7-.2,4.33,4.33,0,0,1-.5-.1,2.2,2.2,0,0,0-.8-.1c-.1,0-.2-.1-.4-.1l-339.8-46.9V44.67a6.15,6.15,0,0,0-.1-1.4.76.76,0,0,0-.1-.4c0-.3-.1-.6-.1-.9s-.1-.5-.2-.8-.1-.3-.1-.5l-.3-.9c0-.1-.1-.3-.1-.4a3,3,0,0,0-.4-.8c-.1-.1-.1-.3-.2-.4a2.09,2.09,0,0,0-.4-.6c-.1-.2-.2-.3-.3-.5s-.2-.3-.3-.5-.3-.4-.4-.6l-.3-.3-.6-.6-.3-.3a4.35,4.35,0,0,0-.7-.6c-.1-.1-.3-.2-.4-.3s-.4-.3-.6-.5a9.22,9.22,0,0,0-.8-.5c-.1-.1-.2-.1-.3-.2-.4-.2-.9-.4-1.3-.6l-73.7-31A13.51,13.51,0,0,0,8.27,26l65.4,27.6v295.8a55.26,55.26,0,0,0,48.1,54.7,54.48,54.48,0,1,0,101.2,28,53.47,53.47,0,0,0-7.5-27.5h121.4a53.74,53.74,0,0,0-7.5,27.5,54.5,54.5,0,1,0,54.5-54.5h-255a28.23,28.23,0,0,1-28.2-28.2v-36.6A55.83,55.83,0,0,0,128.87,320.37ZM196.07,432a27.5,27.5,0,1,1-27.5-27.5A27.55,27.55,0,0,1,196.07,432Zm215.4,0a27.5,27.5,0,1,1-27.5-27.5A27.55,27.55,0,0,1,411.47,432ZM397,293.37H128.87a28.23,28.23,0,0,1-28.2-28.2V119.27L425.17,164v101.1A28.25,28.25,0,0,1,397,293.37Z"/></svg>